<svg xmlns="http://www.w3.org/2000/svg" xmlns:xlink="http://www.w3.org/1999/xlink" width="40" height="40"><defs><linearGradient id="b" x1="50%" x2="50%" y1="100%" y2="1.712%"><stop offset="0%" stop-color="#849BFE"/><stop offset="100%" stop-color="#3451CC"/></linearGradient><path id="a" d="M36 0a4 4 0 0 1 4 4v32a4 4 0 0 1-4 4H4a4 4 0 0 1-4-4V4a4 4 0 0 1 4-4h32ZM18 30.91h-7.09a3.636 3.636 0 0 0-3.637 3.635h25.454l-.005-.193a3.637 3.637 0 0 0-3.631-3.443H22a2 2 0 0 0-2 2 2 2 0 0 0-2-2ZM34.545 5.454H5.455A3.636 3.636 0 0 0 9.09 9.09h9.09v20a1.818 1.818 0 1 0 3.637 0v-20h9.091a3.636 3.636 0 0 0 3.636-3.636Zm-18.181 7.272H7.273a3.636 3.636 0 0 0 3.636 3.637h1.818V20a3.636 3.636 0 0 0 3.637 3.636V12.727Zm16.363 0h-9.09v10.91A3.636 3.636 0 0 0 27.272 20v-3.637h1.818a3.636 3.636 0 0 0 3.636-3.636Z"/></defs><use xlink:href="#a" fill="url(#b)" fill-rule="evenodd"/></svg>