<svg xmlns="http://www.w3.org/2000/svg" width="40" height="40"><path fill="#2C4197" fill-rule="nonzero" d="M20 22.443c-9.306 0-17 4.85-17 11.084 0 1.716.513 2.892 1.882 3.735 1.065.802 2.91 1.228 6.067 1.443 2.15.189 4.942.285 8.532.294l1.658-.001c3.622-.017 6.376-.124 8.483-.33 2.484-.197 4.097-.552 5.18-1.183C36.42 36.68 37 35.465 37 33.527c0-6.235-7.694-11.084-17-11.084ZM25.134 2H19.5c-4.941 0-8.96 4.039-8.96 9.003v1.002c.005 4.963 4.021 9.003 8.96 9.003h.996c4.941 0 8.96-4.039 8.96-9.003V6.339C29.455 3.948 27.52 2 25.133 2Z"/></svg>